name processed_emg_signals
nRows=50
nColumns=7
 
endheader
time	RGLTMED	RRF	RADDLONG	RST	RTA	RGM
1.327	0.1723187145726047	0.216475680399952	0.4046318288244354	0.1403766383848904	0.4186467836951923	0.0831841196175414
1.328	0.1715311682965512	0.2168577502873111	0.4039663157010286	0.1470573768054923	0.4148782772697312	0.0828732945414656
1.329	0.1707262422895445	0.2172027603796663	0.4033126841651137	0.1538681557853822	0.4111952320526081	0.0825751084118791
1.33	0.1699040756870111	0.2175101788995091	0.4026711222324532	0.1608062802884385	0.4076000362225447	0.082289814741499
1.331	0.1690648517850989	0.2177795260881052	0.4020417672533957	0.1678688860058027	0.404095099722678	0.082017652607909
1.332	0.1682087993321787	0.2180103757924736	0.4014247045058351	0.1750529401010183	0.4006828501391384	0.0817588463946902
1.333	0.1673361937854296	0.2182023570395712	0.4008199659279579	0.1823552422001761	0.3973657284158026	0.0815136055590293
1.334	0.1664473585301645	0.2183551555937495	0.4002275289994988	0.1897724256289614	0.3941461844285267	0.0812821244259439
1.335	0.1655426660595924	0.2184685154935454	0.3996473157795434	0.1973009588980383	0.3910266724417414	0.0810645820086613
1.336	0.1646225391126099	0.2185422405631327	0.3990791921091685	0.20493714743756	0.3880096464697628	0.0808611418549013
1.337	0.1636874517673509	0.2185761958937425	0.3985229669870494	0.2126771355812557	0.3850975555642292	0.0806719519183288
1.338	0.1627379304880237	0.2185703092899361	0.3979783921252191	0.2205169087998927	0.3822928390482111	0.0804971444544958
1.339	0.1617745551227415	0.2185245726756634	0.3974451616920925	0.2284522961835775	0.3795979217164659	0.0803368359402969
1.34	0.1607979598495904	0.2184390434552333	0.3969229122485576	0.2364789731717728	0.3770152090204125	0.0801911270157994
1.341	0.1598088340688012	0.2183138458240948	0.3964112228827881	0.24459246452943	0.3745470822553394	0.0800601024471532
1.342	0.1588079232383298	0.2181491720246241	0.3959096155482682	0.2527881475670188	0.3721958937663806	0.0799438311090835
1.343	0.1577960296509585	0.2179452835414707	0.3954175556094633	0.2610612556015794	0.3699639621887888	0.0798423659853748
1.344	0.1567740131506264	0.2177025122313279	0.3949344525984337	0.2694068816551031	0.3678535677370859	0.0797557441856274
1.345	0.1557427917863331	0.2174212613814468	0.3944596611853513	0.277819982385849	0.3658669475564275	0.0796839869766002
1.346	0.1547033424020258	0.2171020066912943	0.3939924823648649	0.2862953822473207	0.3640062911484327	0.0796270998265956
1.347	0.1536567011608657	0.2167452971722285	0.3935321648593425	0.2948277778688463	0.3622737358825001	0.0795850724616051
1.348	0.1526039640023904	0.2163517559601013	0.3930779067393299	0.3034117426508667	0.3606713626023762	0.079557878932239
1.349	0.1515462870313194	0.2159220810363689	0.3926288572602112	0.312041731567494	0.3592011913367416	0.0795454776907436
1.35	0.1504848868362725	0.2154570458538933	0.3921841189135227	0.320712086168411	0.3578651771214318	0.0795478116775852
1.351	0.1494210407369287	0.2149574998645891	0.3917427496896378	0.3294170397719165	0.3566652059401563	0.0795648084173284
1.352	0.1483560869578832	0.2144243689469885	0.3913037655482296	0.3381507228406378	0.3556030907895333	0.0795963801237504
1.353	0.1472914247274748	0.2138586557330079	0.3908661430912982	0.3469071685310114	0.3546805678736537	0.0796424238143666
1.354	0.146228514299949	0.2132614398343104	0.3904288224325482	0.3556803184071292	0.3538992929324239	0.0797028214346959
1.355	0.1451688768995142	0.2126338779688437	0.3899907102565351	0.3644640283092314	0.3532608377075594	0.0797774399925788
1.356	0.1441140945847529	0.2119772039892001	0.389550683059716	0.3732520743670677	0.3527666865497949	0.0798661317029014
1.357	0.1430658100318064	0.2112927288145387	0.3891075905656747	0.3820381591489835	0.352418233170848	0.0799687341429982
1.358	0.1420257262345828	0.2105818402683258	0.3886602593057139	0.3908159179386153	0.3522167775439289	0.0800850704190178
1.359	0.1409956061196761	0.2098460028246958	0.3882074963556572	0.3995789251324245	0.3521635229562658	0.0802149493436036
1.36	0.1399772720735868	0.2090867572659779	0.3877480932184038	0.4083207007525608	0.3522595732169575	0.0803581656253193
1.361	0.138972605379486	0.2083057202541788	0.3872808298409282	0.4170347170705759	0.3525059300229819	0.0805145000703512
1.362	0.1379835455603414	0.2075045838186114	0.3868044787535896	0.4257144053386864	0.352903490485526	0.0806837197970755
1.363	0.137012089625262	0.206685114761975	0.3863178093182197	0.4343531626266554	0.3534530448182751	0.080865578464279
1.364	0.1360602912158187	0.20584915398619	0.3858195920714702	0.442944358763748	0.3541552741882434	0.0810598165137486
1.365	0.1351302596490585	0.2049986157397053	0.3853086031491645	0.4514813433860729	0.3550107487286427	0.0812661614281065
1.366	0.1342241588542456	0.2041354867866208	0.3847836287779171	0.4599574530897876	0.3560199257120492	0.0814843280045979
1.367	0.1333442062003654	0.2032618254985535	0.3842434698207949	0.4683660186899414	0.3571831478810677	0.081714018645421
1.368	0.1324926712119336	0.2023797608690509	0.3836869463636804	0.476700372584059	0.3585006419325551	0.0819549236650877
1.369	0.1316718741710076	0.2014914914507474	0.3831129023298044	0.4849538562187669	0.3599725171507363	0.0822067216149572
1.37	0.1308841846038193	0.2005992842152341	0.3825202101090641	0.4931198276572761	0.3615987641836756	0.0824690796250816
1.371	0.1301320196508531	0.199705473335196	0.3819077751886945	0.5011916692449319	0.3633792539569563	0.0827416537632205
1.372	0.1294178423193284	0.1988124588889515	0.3812745407704527	0.5091627953692233	0.3653137367180789	0.083024089410848
1.373	0.1287441596174816	0.1979227054870174	0.3806194923594841	0.5170266603094544	0.3674018412054035	0.0833160216558436
1.374	0.1281135205702978	0.1970387408208976	0.3799416623088498	0.5247767661698709	0.3696430739360068	0.0836170757015089
1.375	0.1275285141168416	0.1961631541338095	0.3792401343032822	0.5324066708887543	0.3720368186078395	0.0839268672915352
1.3760000000000001	0.1269917668899813	0.1952985946133688	0.3785140477650277	0.5399099963148877	0.3745823356126632	0.0842450031506721
